<svg width="1080" height="1080" viewBox="0 0 1080 1080" fill="none" xmlns="http://www.w3.org/2000/svg">
<rect width="1080" height="1080" fill="white"/>
<circle cx="542" cy="540" r="340" fill="url(#paint0_linear_1_2)"/>
<path d="M703.5 630.96L682.5 638.333V554.5H688.5H703.5V630.96ZM545.091 554.564H549.5V573.333L538.376 554.564H545.091ZM533 698H549.5V735.147L531.097 741.762V698H533ZM400.026 539.884L380.026 573.944V421.347L400.026 413.728V539.884ZM549.5 390.887L530.333 424.688L529.712 317.937L549.5 310.917V390.887ZM703.5 425.771L682.5 389.249V383.04L703.5 375.666V425.771Z" stroke="white" stroke-width="103"/>
<path d="M281.48 1004V990.304C284.424 985.781 287.283 981.024 290.056 976.032C292.829 971.04 295.325 966.027 297.544 960.992C299.805 955.915 301.597 951.008 302.92 946.272C304.243 941.536 304.904 937.184 304.904 933.216C304.904 930.4 304.627 927.776 304.072 925.344C303.517 922.912 302.259 921.696 300.296 921.696C298.333 921.696 297.075 922.912 296.52 925.344C295.965 927.733 295.688 930.357 295.688 933.216V939.744H281.864V933.216C281.864 929.461 282.184 926.091 282.824 923.104C283.507 920.075 284.573 917.515 286.024 915.424C287.475 913.291 289.373 911.669 291.72 910.56C294.067 909.451 296.925 908.896 300.296 908.896C303.667 908.896 306.525 909.451 308.872 910.56C311.219 911.669 313.117 913.248 314.568 915.296C316.019 917.344 317.064 919.819 317.704 922.72C318.387 925.579 318.728 928.779 318.728 932.32C318.728 936.544 318.088 941.109 316.808 946.016C315.571 950.88 313.907 955.893 311.816 961.056C309.768 966.176 307.464 971.232 304.904 976.224C302.344 981.173 299.741 985.867 297.096 990.304H318.984V1004H281.48ZM328.62 1004V909.92H341.548L354.348 958.944L355.5 963.296H356.268V909.92H368.94V1004H357.292L343.212 954.976L342.06 950.624H341.292V1004H328.62ZM398.87 1004V909.92H431.766V924.128H412.694V948.832H425.494V963.04H412.694V1004H398.87ZM437.37 1004V909.92H451.194V1004H437.37ZM559.615 1004L573.823 909.92H590.719L604.927 1004H591.487L588.927 984.8H575.615L573.055 1004H559.615ZM577.535 970.208H587.007L583.039 938.592L582.655 933.6H581.887L581.503 938.592L577.535 970.208ZM612.245 1004V909.92H625.173L637.973 958.944L639.125 963.296H639.893V909.92H652.565V1004H640.917L626.837 954.976L625.685 950.624H624.917V1004H612.245ZM680.537 1005.02C676.612 1005.02 673.262 1004.15 670.489 1002.4C667.758 1000.61 665.668 998.176 664.217 995.104C662.809 992.032 662.105 988.555 662.105 984.672V929.248C662.105 925.408 662.83 921.952 664.281 918.88C665.774 915.808 667.908 913.376 670.681 911.584C673.454 909.792 676.74 908.896 680.537 908.896C683.396 908.896 685.956 909.429 688.217 910.496C690.478 911.563 692.398 913.035 693.977 914.912C695.598 916.747 696.836 918.901 697.689 921.376C698.542 923.808 698.969 926.432 698.969 929.248V942.176H686.041V929.248C686.041 927.285 685.636 925.643 684.825 924.32C684.014 922.997 682.67 922.336 680.793 922.336C679.086 922.336 677.849 923.019 677.081 924.384C676.313 925.749 675.929 927.371 675.929 929.248V984.672C675.929 986.549 676.334 988.171 677.145 989.536C677.998 990.901 679.214 991.584 680.793 991.584C682.713 991.584 684.057 990.923 684.825 989.6C685.636 988.277 686.041 986.635 686.041 984.672V971.744H698.969V984.672C698.969 988.512 698.222 991.968 696.729 995.04C695.236 998.112 693.102 1000.54 690.329 1002.34C687.598 1004.13 684.334 1005.02 680.537 1005.02ZM688.025 1007.9C689.902 1007.9 691.609 1008.52 693.145 1009.76C694.681 1011.04 695.449 1013.17 695.449 1016.16C695.449 1018.93 694.66 1021.19 693.081 1022.94C691.545 1024.74 689.54 1026.04 687.065 1026.85C684.633 1027.66 682.073 1028.06 679.385 1028.06C677.081 1028.06 674.734 1027.7 672.345 1026.98C669.998 1026.29 668.27 1025.55 667.161 1024.74L670.489 1017.7C671.257 1018.25 672.58 1018.91 674.457 1019.68C676.377 1020.45 678.254 1020.83 680.089 1020.83C681.966 1020.83 683.566 1020.51 684.889 1019.87C686.212 1019.23 686.873 1018.12 686.873 1016.54C686.873 1015.22 686.51 1014.33 685.785 1013.86C685.102 1013.39 684.356 1013.15 683.545 1013.15C681.625 1013.15 680.238 1013.88 679.385 1015.33L672.409 1013.02L676.185 1004H683.801L680.793 1010.91H680.217C680.558 1009.97 681.518 1009.23 683.097 1008.67C684.676 1008.16 686.318 1007.9 688.025 1007.9ZM705.74 1004L719.948 909.92H736.844L751.052 1004H737.612L735.052 984.8H721.74L719.18 1004H705.74ZM723.66 970.208H733.132L729.164 938.592L728.78 933.6H728.012L727.628 938.592L723.66 970.208ZM773.76 1005.02C769.963 1005.02 766.805 1004.41 764.288 1003.17C761.771 1001.89 759.787 1000.05 758.336 997.664C756.885 995.275 755.84 992.395 755.2 989.024C754.603 985.653 754.304 981.856 754.304 977.632L767.872 976.352C767.872 978.4 767.936 980.384 768.064 982.304C768.235 984.181 768.512 985.888 768.896 987.424C769.323 988.917 769.92 990.112 770.688 991.008C771.499 991.904 772.523 992.352 773.76 992.352C775.808 992.352 777.259 991.413 778.112 989.536C778.965 987.616 779.392 985.312 779.392 982.624C779.392 979.936 778.688 977.141 777.28 974.24C775.872 971.339 774.187 968.587 772.224 965.984C768.896 961.547 765.973 957.429 763.456 953.632C760.981 949.835 759.04 946.101 757.632 942.432C756.267 938.763 755.584 934.923 755.584 930.912C755.584 927.755 755.989 924.853 756.8 922.208C757.611 919.52 758.784 917.195 760.32 915.232C761.899 913.227 763.797 911.669 766.016 910.56C768.235 909.451 770.773 908.896 773.632 908.896C777.173 908.896 780.16 909.493 782.592 910.688C785.067 911.883 787.051 913.589 788.544 915.808C790.08 918.027 791.189 920.672 791.872 923.744C792.597 926.773 792.96 930.144 792.96 933.856L779.392 935.136C779.392 933.557 779.307 931.979 779.136 930.4C779.008 928.779 778.752 927.307 778.368 925.984C777.984 924.661 777.429 923.595 776.704 922.784C775.979 921.973 775.04 921.568 773.888 921.568C772.096 921.568 770.859 922.336 770.176 923.872C769.493 925.365 769.152 927.499 769.152 930.272C769.152 933.856 770.112 937.312 772.032 940.64C773.952 943.968 776.533 947.851 779.776 952.288C783.659 957.536 786.816 962.357 789.248 966.752C791.723 971.147 792.96 976.011 792.96 981.344C792.96 984.715 792.597 987.851 791.872 990.752C791.147 993.611 789.995 996.107 788.416 998.24C786.88 1000.37 784.896 1002.04 782.464 1003.23C780.075 1004.43 777.173 1005.02 773.76 1005.02Z" fill="black"/>
<path d="M461.495 1004V909.92H474.423L487.223 958.944L488.375 963.296H489.143V909.92H501.815V1004H490.167L476.087 954.976L474.935 950.624H474.167V1004H461.495ZM511.995 1004V909.92H524.923L537.723 958.944L538.875 963.296H539.643V909.92H552.315V1004H540.667L526.587 954.976L525.435 950.624H524.667V1004H511.995Z" fill="#004195"/>
<defs>
<linearGradient id="paint0_linear_1_2" x1="542" y1="200" x2="542" y2="880" gradientUnits="userSpaceOnUse">
<stop stop-color="#006FFF"/>
<stop offset="1"/>
</linearGradient>
</defs>
</svg>
