<svg width="1080" height="1080" viewBox="0 0 1080 1080" fill="none" xmlns="http://www.w3.org/2000/svg">
<rect width="1080" height="1080" fill="white"/>
<path d="M878.495 558.518C881.095 510.86 873.631 463.19 856.591 418.607C839.55 374.024 813.313 333.529 779.588 299.756C745.864 265.983 705.406 239.688 660.848 222.584C616.29 205.479 568.63 197.947 520.968 200.478C473.307 203.01 426.713 215.547 384.217 237.275C341.722 259.003 304.277 289.435 274.319 326.59C244.361 363.745 222.561 406.792 210.338 452.929C198.115 499.065 195.743 547.259 203.376 594.373L539 540L878.495 558.518Z" fill="url(#paint0_linear_1_2)"/>
<path d="M182 512C316.654 495.215 473.5 232.5 506.5 385C539.5 537.5 831 258 831 258" stroke="white" stroke-width="44"/>
<path d="M855 238L775.876 254.516L829.741 314.781L855 238ZM182.866 518.946C218.361 514.522 254.612 494.056 288.961 469.309C323.314 444.56 357.069 414.509 386.775 390.458C401.757 378.328 415.742 367.687 428.542 359.675C441.436 351.605 452.578 346.56 461.921 345.059C470.895 343.617 477.919 345.447 483.765 351.042C489.999 357.008 495.654 367.975 499.658 386.481L513.342 383.52C509.096 363.9 502.63 349.718 493.445 340.927C483.871 331.765 472.176 329.231 459.7 331.236C447.595 333.181 434.558 339.393 421.115 347.808C407.579 356.28 393.067 367.351 377.965 379.578C347.503 404.241 314.736 433.485 280.778 457.95C246.815 482.418 212.966 501.086 181.134 505.054L182.866 518.946ZM499.658 386.481C503.005 401.944 509.229 413.794 518.277 421.998C527.363 430.237 538.678 434.239 551.139 435.099C575.611 436.788 605.603 426.447 636.37 410.769C698.274 379.224 767.941 323.592 812.587 285.295L803.472 274.668C758.911 312.892 690.319 367.564 630.014 398.295C599.675 413.755 572.575 422.545 552.103 421.132C542.094 420.441 533.975 417.334 527.681 411.627C521.349 405.886 516.249 396.953 513.342 383.52L499.658 386.481Z" fill="black"/>
<path d="M703.5 630.96L682.5 638.333V554.5H688.5H703.5V630.96ZM545.091 554.564H549.5V573.333L538.376 554.564H545.091ZM533 698H549.5V735.147L531.097 741.762V698H533ZM400.026 539.884L380.026 573.944V421.347L400.026 413.728V539.884ZM549.5 390.887L530.333 424.688L529.712 317.937L549.5 310.917V390.887ZM703.5 425.771L682.5 389.249V383.04L703.5 375.666V425.771Z" stroke="black" stroke-width="103"/>
<path d="M281.48 929V915.304C284.424 910.781 287.283 906.024 290.056 901.032C292.829 896.04 295.325 891.027 297.544 885.992C299.805 880.915 301.597 876.008 302.92 871.272C304.243 866.536 304.904 862.184 304.904 858.216C304.904 855.4 304.627 852.776 304.072 850.344C303.517 847.912 302.259 846.696 300.296 846.696C298.333 846.696 297.075 847.912 296.52 850.344C295.965 852.733 295.688 855.357 295.688 858.216V864.744H281.864V858.216C281.864 854.461 282.184 851.091 282.824 848.104C283.507 845.075 284.573 842.515 286.024 840.424C287.475 838.291 289.373 836.669 291.72 835.56C294.067 834.451 296.925 833.896 300.296 833.896C303.667 833.896 306.525 834.451 308.872 835.56C311.219 836.669 313.117 838.248 314.568 840.296C316.019 842.344 317.064 844.819 317.704 847.72C318.387 850.579 318.728 853.779 318.728 857.32C318.728 861.544 318.088 866.109 316.808 871.016C315.571 875.88 313.907 880.893 311.816 886.056C309.768 891.176 307.464 896.232 304.904 901.224C302.344 906.173 299.741 910.867 297.096 915.304H318.984V929H281.48ZM328.62 929V834.92H341.548L354.348 883.944L355.5 888.296H356.268V834.92H368.94V929H357.292L343.212 879.976L342.06 875.624H341.292V929H328.62ZM398.87 929V834.92H431.766V849.128H412.694V873.832H425.494V888.04H412.694V929H398.87ZM437.37 929V834.92H451.194V929H437.37ZM559.615 929L573.823 834.92H590.719L604.927 929H591.487L588.927 909.8H575.615L573.055 929H559.615ZM577.535 895.208H587.007L583.039 863.592L582.655 858.6H581.887L581.503 863.592L577.535 895.208ZM612.245 929V834.92H625.173L637.973 883.944L639.125 888.296H639.893V834.92H652.565V929H640.917L626.837 879.976L625.685 875.624H624.917V929H612.245ZM680.537 930.024C676.612 930.024 673.262 929.149 670.489 927.4C667.758 925.608 665.668 923.176 664.217 920.104C662.809 917.032 662.105 913.555 662.105 909.672V854.248C662.105 850.408 662.83 846.952 664.281 843.88C665.774 840.808 667.908 838.376 670.681 836.584C673.454 834.792 676.74 833.896 680.537 833.896C683.396 833.896 685.956 834.429 688.217 835.496C690.478 836.563 692.398 838.035 693.977 839.912C695.598 841.747 696.836 843.901 697.689 846.376C698.542 848.808 698.969 851.432 698.969 854.248V867.176H686.041V854.248C686.041 852.285 685.636 850.643 684.825 849.32C684.014 847.997 682.67 847.336 680.793 847.336C679.086 847.336 677.849 848.019 677.081 849.384C676.313 850.749 675.929 852.371 675.929 854.248V909.672C675.929 911.549 676.334 913.171 677.145 914.536C677.998 915.901 679.214 916.584 680.793 916.584C682.713 916.584 684.057 915.923 684.825 914.6C685.636 913.277 686.041 911.635 686.041 909.672V896.744H698.969V909.672C698.969 913.512 698.222 916.968 696.729 920.04C695.236 923.112 693.102 925.544 690.329 927.336C687.598 929.128 684.334 930.024 680.537 930.024ZM688.025 932.904C689.902 932.904 691.609 933.523 693.145 934.76C694.681 936.04 695.449 938.173 695.449 941.16C695.449 943.933 694.66 946.195 693.081 947.944C691.545 949.736 689.54 951.037 687.065 951.848C684.633 952.659 682.073 953.064 679.385 953.064C677.081 953.064 674.734 952.701 672.345 951.976C669.998 951.293 668.27 950.547 667.161 949.736L670.489 942.696C671.257 943.251 672.58 943.912 674.457 944.68C676.377 945.448 678.254 945.832 680.089 945.832C681.966 945.832 683.566 945.512 684.889 944.872C686.212 944.232 686.873 943.123 686.873 941.544C686.873 940.221 686.51 939.325 685.785 938.856C685.102 938.387 684.356 938.152 683.545 938.152C681.625 938.152 680.238 938.877 679.385 940.328L672.409 938.024L676.185 929H683.801L680.793 935.912H680.217C680.558 934.973 681.518 934.227 683.097 933.672C684.676 933.16 686.318 932.904 688.025 932.904ZM705.74 929L719.948 834.92H736.844L751.052 929H737.612L735.052 909.8H721.74L719.18 929H705.74ZM723.66 895.208H733.132L729.164 863.592L728.78 858.6H728.012L727.628 863.592L723.66 895.208ZM773.76 930.024C769.963 930.024 766.805 929.405 764.288 928.168C761.771 926.888 759.787 925.053 758.336 922.664C756.885 920.275 755.84 917.395 755.2 914.024C754.603 910.653 754.304 906.856 754.304 902.632L767.872 901.352C767.872 903.4 767.936 905.384 768.064 907.304C768.235 909.181 768.512 910.888 768.896 912.424C769.323 913.917 769.92 915.112 770.688 916.008C771.499 916.904 772.523 917.352 773.76 917.352C775.808 917.352 777.259 916.413 778.112 914.536C778.965 912.616 779.392 910.312 779.392 907.624C779.392 904.936 778.688 902.141 777.28 899.24C775.872 896.339 774.187 893.587 772.224 890.984C768.896 886.547 765.973 882.429 763.456 878.632C760.981 874.835 759.04 871.101 757.632 867.432C756.267 863.763 755.584 859.923 755.584 855.912C755.584 852.755 755.989 849.853 756.8 847.208C757.611 844.52 758.784 842.195 760.32 840.232C761.899 838.227 763.797 836.669 766.016 835.56C768.235 834.451 770.773 833.896 773.632 833.896C777.173 833.896 780.16 834.493 782.592 835.688C785.067 836.883 787.051 838.589 788.544 840.808C790.08 843.027 791.189 845.672 791.872 848.744C792.597 851.773 792.96 855.144 792.96 858.856L779.392 860.136C779.392 858.557 779.307 856.979 779.136 855.4C779.008 853.779 778.752 852.307 778.368 850.984C777.984 849.661 777.429 848.595 776.704 847.784C775.979 846.973 775.04 846.568 773.888 846.568C772.096 846.568 770.859 847.336 770.176 848.872C769.493 850.365 769.152 852.499 769.152 855.272C769.152 858.856 770.112 862.312 772.032 865.64C773.952 868.968 776.533 872.851 779.776 877.288C783.659 882.536 786.816 887.357 789.248 891.752C791.723 896.147 792.96 901.011 792.96 906.344C792.96 909.715 792.597 912.851 791.872 915.752C791.147 918.611 789.995 921.107 788.416 923.24C786.88 925.373 784.896 927.037 782.464 928.232C780.075 929.427 777.173 930.024 773.76 930.024Z" fill="black"/>
<path d="M461.495 929V834.92H474.423L487.223 883.944L488.375 888.296H489.143V834.92H501.815V929H490.167L476.087 879.976L474.935 875.624H474.167V929H461.495ZM511.995 929V834.92H524.923L537.723 883.944L538.875 888.296H539.643V834.92H552.315V929H540.667L526.587 879.976L525.435 875.624H524.667V929H511.995Z" fill="#004195"/>
<defs>
<linearGradient id="paint0_linear_1_2" x1="539" y1="200" x2="539" y2="880" gradientUnits="userSpaceOnUse">
<stop stop-color="#006FFF"/>
<stop offset="1"/>
</linearGradient>
</defs>
</svg>
